#!OML:ASF C:\Vicon Data\Big\jianyuan-11\jianyuan\Session 1\male.ASF
:FULLY-SPECIFIED
:DEGREES
98
root -9.962334 16.300811 -16.018343 -9.391654 -30.807134 9.173122
lowerback 2.185432 5.035477 0.162256 
upperback 5.767696 6.970731 -0.672712 
thorax 4.848627 3.589853 -0.626164 
lowerneck -11.213276 -9.531624 -11.991824 
upperneck 22.947233 -13.054475 11.695677 
head 10.831864 -5.567790 4.462081 
rclavicle 0.000000 0.000000 
rhumerus -31.960933 -18.184250 -84.956741 
rradius 49.799613 
rwrist -7.787997 
rhand -16.452946 0.370663 
rfingers 0.000000 
rthumb 9.763192 -29.383018 
lclavicle 0.000000 0.000000 
lhumerus -71.081856 55.137434 26.263520 
lradius 17.902948 
lwrist -61.955981 
lhand -11.163962 -9.866845 
lfingers 0.000000 
lthumb 14.862571 19.580100 
rfemur 12.851691 7.888709 32.508506 
rtibia 22.372882 
rfoot -4.917420 -3.168248 
rtoes 18.609291 
lfemur -22.371816 -4.863994 -18.668898 
ltibia 20.165713 
lfoot -6.216518 -0.537102 
ltoes -16.162433 
99
root -9.999183 16.305345 -15.931226 -9.132494 -31.092760 8.944229
lowerback 2.021928 5.048848 0.479239 
upperback 5.708616 6.977562 -0.643350 
thorax 4.913228 3.602445 -0.754706 
lowerneck -11.304082 -9.490452 -11.939132 
upperneck 23.048875 -12.975520 11.567906 
head 10.861925 -5.535667 4.417944 
rclavicle 0.000000 0.000000 
rhumerus -31.894556 -18.060993 -85.012572 
rradius 49.899624 
rwrist -8.103497 
rhand -16.342441 0.201545 
rfingers 0.000000 
rthumb 9.869764 -29.547144 
lclavicle 0.000000 0.000000 
lhumerus -71.731051 54.907349 25.644676 
lradius 17.947953 
lwrist -61.634174 
lhand -11.239286 -9.765362 
lfingers 0.000000 
lthumb 14.789955 19.686900 
rfemur 13.263459 7.839457 32.600777 
rtibia 21.929064 
rfoot -4.537777 -2.937904 
rtoes 19.407441 
lfemur -22.571892 -4.381064 -18.737492 
ltibia 19.327599 
lfoot -5.659317 -1.028843 
ltoes -16.895589 
100
root -10.036507 16.306866 -15.844487 -9.066504 -31.370701 8.906238
lowerback 1.966078 5.090665 0.596210 
upperback 5.663663 7.027120 -0.634647 
thorax 4.911774 3.629844 -0.804913 
lowerneck -11.283476 -9.449691 -11.966168 
upperneck 23.065828 -12.903709 11.522518 
head 10.852524 -5.511058 4.418397 
rclavicle 0.000000 0.000000 
rhumerus -31.933217 -17.989998 -85.004583 
rradius 49.936549 
rwrist -8.118713 
rhand -16.414965 0.190029 
rfingers 0.000000 
rthumb 9.799789 -29.561912 
lclavicle 0.000000 0.000000 
lhumerus -72.687136 54.802250 24.622337 
lradius 17.959054 
lwrist -61.679475 
lhand -11.279804 -9.767232 
lfingers 0.000000 
lthumb 14.750957 19.687850 
rfemur 13.776676 7.844317 32.565860 
rtibia 21.516889 
rfoot -4.114725 -2.776786 
rtoes 18.952469 
lfemur -22.668907 -4.026513 -18.971318 
ltibia 18.568097 
lfoot -5.258681 -1.543122 
ltoes -16.125709 
101
root -10.076710 16.310878 -15.754827 -8.971665 -31.747646 8.817593
lowerback 1.856507 5.139385 0.785179 
upperback 5.640905 7.085436 -0.616004 
thorax 4.972230 3.664542 -0.876486 
lowerneck -11.261635 -9.412285 -11.989951 
upperneck 23.028472 -12.844451 11.510921 
head 10.826992 -5.490591 4.427469 
rclavicle 0.000000 0.000000 
rhumerus -31.922067 -17.735026 -85.023193 
rradius 49.973623 
rwrist -8.177050 
rhand -16.399560 0.114355 
rfingers 0.000000 
rthumb 9.814677 -29.636897 
lclavicle 0.000000 0.000000 
lhumerus -73.587650 54.728552 23.674102 
lradius 17.961059 
lwrist -61.692557 
lhand -10.992565 -9.953201 
lfingers 0.000000 
lthumb 15.027667 19.481443 
rfemur 14.283471 7.765084 32.521372 
rtibia 21.102670 
rfoot -3.607050 -2.525966 
rtoes 19.200061 
lfemur -22.769520 -3.740338 -19.090013 
ltibia 17.948428 
lfoot -5.072660 -1.915739 
ltoes -15.774060 
